:SAMPLES-PER-SECOND 30
:FULLY-SPECIFIED
:DEGREES
281
root  35.09524788 36.49236123 -14.94724244 9.290575981 2.023666143 3.364042044
lowerback  -7.838879585 0.2392029464 1.322319388
upperback  -3.803800106 -0.08699879795 -2.780369997
thorax  0.4581989944 -0.2314089984 -3.624340057
lowerneck  -16.4836998 0.1266539991 -0.0606505014
upperneck  14.01280022 -1.040639997 5.922039986
head  7.04076004 -0.03591338918 1.81783998
lclavicle  0 -4.497500157e-015 -2.743230041e-014
lhumerus  -43.36569977 24.20980072 72.1242981
lradius  -0.1025374159 -6.507048965e-006 29.24469948
lwrist  4.824992743e-007 -3.790274832e-007 -27.2507
lhand  -0 -36.82770157 -10.24120045
lfingers  90 7.125020027 -90
lthumb  94.69081669 -25.08746133 100.9526103
rclavicle  0 -4.497500157e-015 -2.743230041e-014
rhumerus  -49.30310059 -19.71039963 -68.25150299
rradius  -5.16745672e-007 2.214343908e-008 75.5970993
rwrist  1.380293725e-006 2.528095422e-007 -168.3730011
rhand  -0 3.112400055 -4.85612011
rfingers  -90 -7.125020027 -90
rthumb  -84.0442551 -10.78909429 -60.869085
rfemur  -12.86535358 14.43978977 13.527771
rtibia  -1.401587605 0.8900885582 22.08089066
rfoot  -1.157166362 -18.62220383 -40.38344574
rtoes  3.844108393 19.641957 -101.3041849
lfemur  -10.73508453 -18.90153503 -18.72761536
ltibia  1.442180276 0.6661328673 16.60272789
lfoot  0.7005109787 -27.82681847 34.4955864
ltoes  -8.585376663 -18.13207512 -115.8791394
282
root  35.09674973 36.49383305 -14.94281799 9.323848724 1.944044352 3.372250319
lowerback  -7.789040565 0.2387560457 1.336130619
upperback  -3.796410084 -0.0864116028 -2.773180008
thorax  0.4383690059 -0.2304819971 -3.624279976
lowerneck  -16.46999931 0.1430940032 -0.03925580159
upperneck  14.02460003 -1.03012991 5.944590092
head  7.042079926 -0.0285408143 1.82277
lclavicle  0 -4.497500157e-015 -2.743230041e-014
lhumerus  -43.32460022 23.87719917 72.36990356
lradius  -0.1021306366 -6.507048965e-006 29.35809898
lwrist  4.824992743e-007 -3.790274832e-007 -26.90449905
lhand  -0 -36.79150009 -10.21730042
lfingers  90 7.125020027 -90
lthumb  94.66923336 -25.0652647 100.9120208
rclavicle  0 -4.497500157e-015 -2.743230041e-014
rhumerus  -49.25659943 -20.23520088 -68.06800079
rradius  -5.16745672e-007 2.214343908e-008 73.53399658
rwrist  1.380293725e-006 2.528095422e-007 -167.8190002
rhand  -1.768510709e-031 3.308809996 -4.24612999
rfingers  -90 -7.125020027 -90
rthumb  -83.68830413 -11.32880751 -60.61774152
rfemur  -12.89092255 14.41394424 13.49203491
rtibia  -1.395857334 0.8212484717 22.04760933
rfoot  -1.149797082 -18.7299099 -40.33457184
rtoes  3.833994232 19.64385852 -101.2740972
lfemur  -10.76385975 -18.85653877 -18.74273682
ltibia  1.45539999 0.6622928977 16.61409378
lfoot  0.7322383523 -27.82182884 34.5378418
ltoes  -8.62886698 -18.11196113 -116.0189608
283
root  35.09576752 36.49698693 -14.94124255 9.394302368 1.900042892 3.379081011
lowerback  -7.739959717 0.225840956 1.350779533
upperback  -3.771850109 -0.1003020033 -2.762379885
thorax  0.4356400073 -0.2355100065 -3.622179985
lowerneck  -16.46260071 0.1642860025 -0.02810079977
upperneck  14.03139973 -1.012320042 5.978030205
head  7.042739868 -0.01715753414 1.833709836
lclavicle  0 -4.497500157e-015 -2.743230041e-014
lhumerus  -43.24869919 23.69129944 72.52310181
lradius  -0.1017211676 -6.507048965e-006 29.33599854
lwrist  4.824992743e-007 -3.790274832e-007 -26.7098999
lhand  -4.404560901e-031 -36.70750046 -10.33139992
lfingers  90 7.125020027 -90
lthumb  94.65429932 -25.18017779 100.8324777
rclavicle  0 -4.497500157e-015 -2.743230041e-014
rhumerus  -49.18040085 -20.84950066 -67.82219696
rradius  -5.16745672e-007 2.214343908e-008 71.48410034
rwrist  1.380293725e-006 2.528095422e-007 -166.8890076
rhand  -1.768824823e-031 3.480360031 -4.557779789
rfingers  -90 -7.125020027 -90
rthumb  -83.79825243 -11.06390751 -60.47926671
rfemur  -12.98023129 14.37609768 13.46233749
rtibia  -1.402771473 0.786203444 22.06003571
rfoot  -1.147824526 -18.76927567 -40.27415848
rtoes  3.842185163 19.64231898 -101.2984634
lfemur  -10.86661339 -18.81719017 -18.72428131
ltibia  1.442481279 0.6738473773 16.65596199
lfoot  0.7439313531 -27.85308838 34.52519989
ltoes  -8.583886977 -18.13276184 -115.8743527
284
root  35.10161573 36.49602875 -14.9398218 9.362802505 1.731920481 3.40585351
lowerback  -7.765569687 0.2630429864 1.357539654
upperback  -3.781219959 -0.05248909816 -2.747529984
thorax  0.4436540008 -0.2119780034 -3.606889963
lowerneck  -16.49780083 0.1933310032 0.006624700036
upperneck  14.10470009 -0.9882979989 5.978040218
head  7.071819782 -0.002616043203 1.837090373
lclavicle  0 -4.497500157e-015 -2.743230041e-014
lhumerus  -43.20140076 23.60510063 72.62120056
lradius  -0.1013090089 -6.507048965e-006 29.3253994
lwrist  4.824992743e-007 -3.790274832e-007 -26.60059929
lhand  -4.39971065e-031 -36.62269974 -10.45149994
lfingers  90 7.125020027 -90
lthumb  94.63993475 -25.30104937 100.7525964
rclavicle  0 -4.497500157e-015 -2.743230041e-014
rhumerus  -49.11360168 -21.47879982 -67.5530014
rradius  -5.16745672e-007 2.214343908e-008 69.36840057
rwrist  1.380293725e-006 2.528095422e-007 -166.2100067
rhand  -1.769555065e-031 3.849570036 -4.621349812
rfingers  -90 -7.125020027 -90
rthumb  -83.73115541 -11.02335098 -60.12239063
rfemur  -12.96076012 14.40025902 13.4158144
rtibia  -1.396724939 0.7439414263 22.05749893
rfoot  -1.117261767 -18.83789063 -40.14043427
rtoes  3.853686887 19.64015137 -101.3326815
lfemur  -10.76508427 -18.75644684 -18.82013893
ltibia  1.488668323 0.6319380403 16.58561134
lfoot  0.7595385313 -27.75420952 34.61332703
ltoes  -8.562800085 -18.1424666 -115.8066146
285
root  35.10374835 36.49659945 -14.93825387 9.36408329 1.618365645 3.413425446
lowerback  -7.812569618 0.285430938 1.344539404
upperback  -3.752729893 -0.01927099936 -2.736330032
thorax  0.5015050173 -0.1930879951 -3.58562994
lowerneck  -16.53289986 0.2084259987 0.03336310014
upperneck  14.1388998 -0.9799948931 5.987020016
head  7.088799953 0.004303503316 1.836762786
lclavicle  0 -4.497500157e-015 -2.743230041e-014
lhumerus  -43.1106987 23.54700089 72.72570038
lradius  -0.1008941531 -6.507048965e-006 29.30419922
lwrist  4.824992743e-007 -3.790274832e-007 -26.60440063
lhand  -4.396319734e-031 -36.5632019 -10.52700043
lfingers  90 7.125020027 -90
lthumb  94.62779676 -25.37711981 100.6956663
rclavicle  0 -4.497500157e-015 -2.743230041e-014
rhumerus  -49.02740097 -22.21780014 -67.20379639
rradius  -5.16745672e-007 2.214343908e-008 67.18650055
rwrist  1.380293725e-006 2.528095422e-007 -165.6719971
rhand  -1.76823911e-031 3.152920008 -4.80685997
rfingers  -90 -7.125020027 -90
rthumb  -84.00928129 -10.8337096 -60.82471793
rfemur  -12.97795486 14.43491173 13.38787651
rtibia  -1.391312122 0.7151122093 22.05828476
rfoot  -1.099723935 -18.88910103 -40.06112289
rtoes  3.872093791 19.63666835 -101.3874505
lfemur  -10.72267342 -18.73421478 -18.85917854
ltibia  1.512966871 0.6034898162 16.54310608
lfoot  0.7717903852 -27.6742382 34.69292831
ltoes  -8.592467204 -18.12880446 -115.9019252
286
root  35.10341794 36.49746151 -14.9357638 9.373970985 1.546733975 3.418019056
lowerback  -7.804359913 0.2954770327 1.360029936
upperback  -3.746239901 -0.006288580131 -2.745170116
thorax  0.5045869946 -0.1865340024 -3.602530003
lowerneck  -16.56719971 0.2290309966 0.07670400292
upperneck  14.19999981 -0.9742878675 6.010220051
head  7.114620209 0.0119359931 1.833160043
lclavicle  0 -4.497500157e-015 -2.743230041e-014
lhumerus  -43.06969833 23.43779945 72.79979706
lradius  -0.1004765853 -6.507048965e-006 29.31410217
lwrist  4.824992743e-007 -3.790274832e-007 -26.603508
lhand  -4.393466388e-031 -36.51300049 -10.56379986
lfingers  90 7.125020027 -90
lthumb  94.61201501 -25.41511507 100.6453353
rclavicle  0 -4.497500157e-015 -2.743230041e-014
rhumerus  -48.88079834 -22.78669739 -66.96179962
rradius  -5.16745672e-007 2.214343908e-008 65.02760315
rwrist  1.380293725e-006 2.528095422e-007 -165.0630035
rhand  -1.769509249e-031 3.827460051 -5.019690037
rfingers  -90 -7.125020027 -90
rthumb  -83.93889238 -10.67694121 -60.18209951
rfemur  -12.98418427 14.422122 13.36451435
rtibia  -1.380080104 0.6730757356 22.04116249
rfoot  -1.091338158 -18.97204971 -40.00474167
rtoes  3.859134806 19.6391223 -101.3488906
lfemur  -10.69981289 -18.70827675 -18.88266563
ltibia  1.530783772 0.6049543023 16.50778961
lfoot  0.7863170505 -27.66201782 34.74990845
ltoes  -8.631680072 -18.11065572 -116.0280101
287
root  35.10471855 36.49892131 -14.9341388 9.401233673 1.467072964 3.434356689
lowerback  -7.78357029 0.3063419759 1.343230367
upperback  -3.742089987 0.01073149964 -2.725150108
thorax  0.4986869991 -0.1770209968 -3.570669889
lowerneck  -16.55550003 0.2545849979 0.1106960028
upperneck  14.23180008 -0.9459539652 5.986619949
head  7.121799946 0.02537360415 1.823150039
lclavicle  0 -4.497500157e-015 -2.743230041e-014
lhumerus  -43.06349945 23.30809975 72.90529633
lradius  -0.1000563204 -6.507048965e-006 29.34729767
lwrist  4.824992743e-007 -3.790274832e-007 -26.59690094
lhand  -4.394085241e-031 -36.52389908 -10.57190037
lfingers  90 7.125020027 -90
lthumb  94.61873304 -25.42262398 100.6576802
rclavicle  0 -4.497500157e-015 -2.743230041e-014
rhumerus  -48.74539948 -23.24440002 -66.62329865
rradius  -5.16745672e-007 2.214343908e-008 62.81740189
rwrist  1.380293725e-006 2.528095422e-007 -164.5449982
rhand  -1.769926406e-031 4.024260044 -4.685029984
rfingers  -90 -7.125020027 -90
rthumb  -83.71648115 -10.97522633 -59.95683681
rfemur  -13.02456284 14.45748138 13.32434559
rtibia  -1.380199432 0.6349237561 22.04940224
rfoot  -1.089005113 -19.02996063 -39.96229553
rtoes  3.854043097 19.64008413 -101.3337413
lfemur  -10.69482422 -18.65833473 -18.91838264
ltibia  1.556033134 0.6006830931 16.46619034
lfoot  0.7934787869 -27.62983704 34.77783203
ltoes  -8.607581923 -18.12182121 -115.9505106
